<?xml version="1.0" encoding="UTF-8"?>
<!DOCTYPE svg PUBLIC "-//W3C//DTD SVG 1.1//EN" "http://www.w3.org/Graphics/SVG/1.1/DTD/svg11.dtd">
<!-- Creator: CorelDRAW X7 -->
<svg xmlns="http://www.w3.org/2000/svg" xml:space="preserve" width="2.104in" height="0.306in" version="1.1" style="shape-rendering:geometricPrecision; text-rendering:geometricPrecision; image-rendering:optimizeQuality; fill-rule:evenodd; clip-rule:evenodd"
viewBox="0 0 2104 306"
 xmlns:xlink="http://www.w3.org/1999/xlink">
 <defs>
  <style type="text/css">
   <![CDATA[
    .fil0 {fill:#373435;fill-rule:nonzero}
    .fil2 {fill:#ED3237;fill-rule:nonzero}
    .fil1 {fill:#3E4095;fill-rule:nonzero}
   ]]>
  </style>
 </defs>
 <g id="Layer_x0020_1">
  <metadata id="CorelCorpID_0Corel-Layer"/>
  <g id="_416415288">
   <path class="fil0" d="M2097 223c-6,20 -16,36 -29,49 -8,8 -18,15 -29,19 -16,6 -26,9 -31,10 -14,3 -32,4 -54,4l-82 0 20 -67 84 0c13,0 23,-1 29,-5 6,-4 11,-9 15,-17 1,-3 3,-6 4,-9 3,-10 1,-22 -5,-37l-40 -90c-3,-9 -5,-15 -6,-18 -2,-10 -1,-23 4,-39l6 -18 76 0c-3,8 -4,15 -5,21 -1,6 0,10 2,14l40 108c6,12 8,23 8,35 0,12 -2,25 -7,40z"/>
   <polygon class="fil0" points="1818,305 1529,305 1644,122 1722,122 1654,232 1733,232 1720,4 1806,4 "/>
   <polygon class="fil0" points="1365,188 1227,188 1248,122 1386,122 "/>
   <polygon class="fil0" points="1142,305 941,305 1036,3 1119,3 1045,238 1163,238 "/>
   <path class="fil0" d="M918 223c-6,20 -16,36 -29,49 -8,8 -18,15 -29,19 -16,6 -26,9 -31,10 -14,3 -32,4 -54,4l-82 0 20 -67 84 0c13,0 23,-1 29,-5 6,-4 11,-9 15,-17 1,-3 3,-6 4,-9 3,-10 1,-22 -5,-37l-40 -90c-3,-9 -5,-15 -6,-18 -2,-10 -1,-23 4,-39l6 -18 76 0c-3,8 -5,15 -5,21 -1,6 -1,10 2,14l40 108c6,12 8,23 8,35 0,12 -2,25 -7,40z"/>
   <polygon class="fil1" points="696,113 635,305 553,305 613,113 "/>
   <polygon class="fil0" points="1532,113 1471,305 1389,305 1449,113 "/>
   <path class="fil0" d="M508 287c-15,8 -28,13 -40,15 -13,3 -29,4 -48,4 -53,0 -89,-17 -107,-52 -14,-28 -15,-62 -3,-101 12,-38 34,-71 67,-100 37,-33 79,-49 125,-49l95 0 -21 68 -66 0c-32,0 -59,9 -80,29 -15,14 -26,33 -34,56 -6,19 -5,37 3,53 10,19 28,29 53,29 17,0 33,-4 48,-12 8,-4 19,-12 34,-23l-26 83z"/>
   <polygon class="fil0" points="539,187 452,187 472,122 560,122 "/>
   <polygon class="fil0" points="277,302 185,302 113,185 134,118 277,1 372,1 202,152 "/>
   <polygon class="fil0" points="82,301 0,301 95,0 177,0 "/>
   <path class="fil1" d="M2097 223c-6,20 -16,36 -29,49 -8,8 -18,15 -29,19 -16,6 -26,9 -31,10 -14,3 -32,4 -54,4l-82 0 20 -67 84 0c13,0 23,-1 29,-5 6,-4 11,-9 15,-17 1,-3 3,-6 4,-9 3,-10 1,-22 -5,-37l-40 -90c-3,-9 -5,-15 -6,-18 -2,-10 -1,-23 4,-39l6 -18 76 0c-3,8 -4,15 -5,21 -1,6 0,10 2,14l40 108c6,12 8,23 8,35 0,12 -2,25 -7,40z"/>
   <polygon class="fil1" points="1818,305 1529,305 1644,122 1722,122 1654,232 1733,232 1720,4 1806,4 "/>
   <polygon class="fil1" points="1532,113 1471,305 1389,305 1449,113 "/>
   <polygon class="fil1" points="1365,188 1227,188 1248,122 1386,122 "/>
   <polygon class="fil1" points="1142,305 941,305 1036,3 1119,3 1045,238 1163,238 "/>
   <path class="fil1" d="M918 223c-6,20 -16,36 -29,49 -8,8 -18,15 -29,19 -16,6 -26,9 -31,10 -14,3 -32,4 -54,4l-82 0 20 -67 84 0c13,0 23,-1 29,-5 6,-4 11,-9 15,-17 1,-3 3,-6 4,-9 3,-10 1,-22 -5,-37l-40 -90c-3,-9 -5,-15 -6,-18 -2,-10 -1,-23 4,-39l6 -18 76 0c-3,8 -5,15 -5,21 -1,6 -1,10 2,14l40 108c6,12 8,23 8,35 0,12 -2,25 -7,40z"/>
   <polygon class="fil2" points="626,72 648,3 730,3 709,72 "/>
   <polygon class="fil2" points="1462,72 1484,3 1566,3 1545,72 "/>
   <path class="fil1" d="M508 287c-15,8 -28,13 -40,15 -13,3 -29,4 -48,4 -53,0 -89,-17 -107,-52 -14,-28 -15,-62 -3,-101 12,-38 34,-71 67,-100 37,-33 79,-49 125,-49l95 0 -21 68 -66 0c-32,0 -59,9 -80,29 -15,14 -26,33 -34,56 -6,19 -5,37 3,53 10,19 28,29 53,29 17,0 33,-4 48,-12 8,-4 19,-12 34,-23l-26 83z"/>
   <polygon class="fil1" points="539,187 452,187 472,122 560,122 "/>
   <polygon class="fil1" points="277,302 185,302 113,185 134,118 277,1 372,1 202,152 "/>
   <polygon class="fil1" points="82,301 0,301 95,0 177,0 "/>
  </g>
 </g>
</svg>
